<?xml version="1.0" encoding="UTF-8" standalone="no"?>
<!DOCTYPE svg PUBLIC "-//W3C//DTD SVG 1.1//EN"
 "http://www.w3.org/Graphics/SVG/1.1/DTD/svg11.dtd">
<!-- Generated by graphviz version 14.1.1 (20251213.1925)
 -->
<!-- Title: KL_Clustering_Algorithm Pages: 1 -->
<svg width="352pt" height="951pt"
 viewBox="0.00 0.00 352.00 951.00" xmlns="http://www.w3.org/2000/svg" xmlns:xlink="http://www.w3.org/1999/xlink">
<g id="graph0" class="graph" transform="scale(1 1) rotate(0) translate(4 947)">
<title>KL_Clustering_Algorithm</title>
<polygon fill="white" stroke="none" points="-4,4 -4,-947 347.94,-947 347.94,4 -4,4"/>
<!-- Start -->
<g id="node1" class="node">
<title>Start</title>
<polygon fill="lightblue" stroke="lightblue" points="214.88,-943 102.12,-943 102.12,-907 214.88,-907 214.88,-943"/>
<text xml:space="preserve" text-anchor="middle" x="158.5" y="-919.95" font-family="Times New Roman,serif" font-size="14.00">Start / Read Input</text>
</g>
<!-- KL_Partition -->
<g id="node2" class="node">
<title>KL_Partition</title>
<polygon fill="lightblue" stroke="lightblue" points="218.62,-870 98.38,-870 98.38,-834 218.62,-834 218.62,-870"/>
<text xml:space="preserve" text-anchor="middle" x="158.5" y="-846.95" font-family="Times New Roman,serif" font-size="14.00">Initial KL Partition</text>
</g>
<!-- Start&#45;&gt;KL_Partition -->
<g id="edge1" class="edge">
<title>Start&#45;&gt;KL_Partition</title>
<path fill="none" stroke="black" d="M158.5,-906.81C158.5,-899.23 158.5,-890.1 158.5,-881.54"/>
<polygon fill="black" stroke="black" points="162,-881.54 158.5,-871.54 155,-881.54 162,-881.54"/>
</g>
<!-- Cluster -->
<g id="node3" class="node">
<title>Cluster</title>
<polygon fill="lightblue" stroke="lightblue" points="252.75,-797 64.25,-797 64.25,-761 252.75,-761 252.75,-797"/>
<text xml:space="preserve" text-anchor="middle" x="158.5" y="-773.95" font-family="Times New Roman,serif" font-size="14.00">Cluster Nodes in Each Partition</text>
</g>
<!-- KL_Partition&#45;&gt;Cluster -->
<g id="edge2" class="edge">
<title>KL_Partition&#45;&gt;Cluster</title>
<path fill="none" stroke="black" d="M158.5,-833.81C158.5,-826.23 158.5,-817.1 158.5,-808.54"/>
<polygon fill="black" stroke="black" points="162,-808.54 158.5,-798.54 155,-808.54 162,-808.54"/>
</g>
<!-- Compute_Var -->
<g id="node4" class="node">
<title>Compute_Var</title>
<polygon fill="lightblue" stroke="lightblue" points="248.25,-724 68.75,-724 68.75,-688 248.25,-688 248.25,-724"/>
<text xml:space="preserve" text-anchor="middle" x="158.5" y="-700.95" font-family="Times New Roman,serif" font-size="14.00">Compute Variance of Clusters</text>
</g>
<!-- Cluster&#45;&gt;Compute_Var -->
<g id="edge3" class="edge">
<title>Cluster&#45;&gt;Compute_Var</title>
<path fill="none" stroke="black" d="M158.5,-760.81C158.5,-753.23 158.5,-744.1 158.5,-735.54"/>
<polygon fill="black" stroke="black" points="162,-735.54 158.5,-725.54 155,-735.54 162,-735.54"/>
</g>
<!-- KL_Gain -->
<g id="node5" class="node">
<title>KL_Gain</title>
<polygon fill="lightblue" stroke="lightblue" points="266.62,-651 50.38,-651 50.38,-615 266.62,-615 266.62,-651"/>
<text xml:space="preserve" text-anchor="middle" x="158.5" y="-627.95" font-family="Times New Roman,serif" font-size="14.00">Compute KL Gains for Cluster Pairs</text>
</g>
<!-- Compute_Var&#45;&gt;KL_Gain -->
<g id="edge4" class="edge">
<title>Compute_Var&#45;&gt;KL_Gain</title>
<path fill="none" stroke="black" d="M158.5,-687.81C158.5,-680.23 158.5,-671.1 158.5,-662.54"/>
<polygon fill="black" stroke="black" points="162,-662.54 158.5,-652.54 155,-662.54 162,-662.54"/>
</g>
<!-- Select_Best -->
<g id="node6" class="node">
<title>Select_Best</title>
<polygon fill="lightblue" stroke="lightblue" points="193,-578 0,-578 0,-542 193,-542 193,-578"/>
<text xml:space="preserve" text-anchor="middle" x="96.5" y="-554.95" font-family="Times New Roman,serif" font-size="14.00">Select Best Cluster Pair to Swap</text>
</g>
<!-- KL_Gain&#45;&gt;Select_Best -->
<g id="edge5" class="edge">
<title>KL_Gain&#45;&gt;Select_Best</title>
<path fill="none" stroke="black" d="M143.49,-614.81C136.1,-606.35 127.05,-595.98 118.87,-586.61"/>
<polygon fill="black" stroke="black" points="121.58,-584.4 112.37,-579.17 116.31,-589 121.58,-584.4"/>
</g>
<!-- Swap -->
<g id="node7" class="node">
<title>Swap</title>
<polygon fill="lightblue" stroke="lightblue" points="152.5,-505 58.5,-505 58.5,-469 152.5,-469 152.5,-505"/>
<text xml:space="preserve" text-anchor="middle" x="105.5" y="-481.95" font-family="Times New Roman,serif" font-size="14.00">Swap Clusters</text>
</g>
<!-- Select_Best&#45;&gt;Swap -->
<g id="edge6" class="edge">
<title>Select_Best&#45;&gt;Swap</title>
<path fill="none" stroke="black" d="M98.68,-541.81C99.65,-534.14 100.82,-524.89 101.92,-516.24"/>
<polygon fill="black" stroke="black" points="105.37,-516.89 103.15,-506.53 98.42,-516.01 105.37,-516.89"/>
</g>
<!-- Lock_Clusters -->
<g id="node8" class="node">
<title>Lock_Clusters</title>
<polygon fill="lightblue" stroke="lightblue" points="192,-416.5 47,-416.5 47,-380.5 192,-380.5 192,-416.5"/>
<text xml:space="preserve" text-anchor="middle" x="119.5" y="-393.45" font-family="Times New Roman,serif" font-size="14.00">Lock Swapped Clusters</text>
</g>
<!-- Swap&#45;&gt;Lock_Clusters -->
<g id="edge7" class="edge">
<title>Swap&#45;&gt;Lock_Clusters</title>
<path fill="none" stroke="black" d="M108.27,-468.91C110.15,-457.26 112.69,-441.55 114.88,-428.02"/>
<polygon fill="black" stroke="black" points="118.31,-428.78 116.45,-418.34 111.4,-427.66 118.31,-428.78"/>
</g>
<!-- Update_Cut -->
<g id="node9" class="node">
<title>Update_Cut</title>
<polygon fill="lightblue" stroke="lightblue" points="188.5,-343.5 76.5,-343.5 76.5,-307.5 188.5,-307.5 188.5,-343.5"/>
<text xml:space="preserve" text-anchor="middle" x="132.5" y="-320.45" font-family="Times New Roman,serif" font-size="14.00">Update Cut Trace</text>
</g>
<!-- Lock_Clusters&#45;&gt;Update_Cut -->
<g id="edge8" class="edge">
<title>Lock_Clusters&#45;&gt;Update_Cut</title>
<path fill="none" stroke="black" d="M122.65,-380.31C124.05,-372.64 125.75,-363.39 127.33,-354.74"/>
<polygon fill="black" stroke="black" points="130.75,-355.48 129.11,-345.02 123.87,-354.22 130.75,-355.48"/>
</g>
<!-- More_Pairs -->
<g id="node10" class="node">
<title>More_Pairs</title>
<polygon fill="lightyellow" stroke="lightyellow" points="176.5,-270.5 9.06,-252.5 176.5,-234.5 343.94,-252.5 176.5,-270.5"/>
<text xml:space="preserve" text-anchor="middle" x="176.5" y="-247.45" font-family="Times New Roman,serif" font-size="14.00">More Cluster Pairs to Swap?</text>
</g>
<!-- Update_Cut&#45;&gt;More_Pairs -->
<g id="edge9" class="edge">
<title>Update_Cut&#45;&gt;More_Pairs</title>
<path fill="none" stroke="black" d="M143.15,-307.31C148.38,-298.87 154.79,-288.53 160.59,-279.18"/>
<polygon fill="black" stroke="black" points="163.46,-281.19 165.75,-270.84 157.51,-277.5 163.46,-281.19"/>
</g>
<!-- More_Pairs&#45;&gt;KL_Gain -->
<g id="edge10" class="edge">
<title>More_Pairs&#45;&gt;KL_Gain</title>
<path fill="none" stroke="black" d="M193.51,-268.95C206.26,-282.27 221.5,-302.76 221.5,-324.5 221.5,-561 221.5,-561 221.5,-561 221.5,-579.56 209.31,-595.53 195.65,-607.6"/>
<polygon fill="black" stroke="black" points="193.77,-604.61 188.22,-613.64 198.19,-610.04 193.77,-604.61"/>
<text xml:space="preserve" text-anchor="middle" x="231.62" y="-437.7" font-family="Times New Roman,serif" font-size="14.00">Yes</text>
</g>
<!-- Rollback -->
<g id="node11" class="node">
<title>Rollback</title>
<polygon fill="lightblue" stroke="lightblue" points="275.25,-182 77.75,-182 77.75,-146 275.25,-146 275.25,-182"/>
<text xml:space="preserve" text-anchor="middle" x="176.5" y="-158.95" font-family="Times New Roman,serif" font-size="14.00">Rollback to Best Prefix of Swaps</text>
</g>
<!-- More_Pairs&#45;&gt;Rollback -->
<g id="edge11" class="edge">
<title>More_Pairs&#45;&gt;Rollback</title>
<path fill="none" stroke="black" d="M176.5,-234.41C176.5,-222.76 176.5,-207.05 176.5,-193.52"/>
<polygon fill="black" stroke="black" points="180,-193.86 176.5,-183.86 173,-193.86 180,-193.86"/>
<text xml:space="preserve" text-anchor="middle" x="184.75" y="-203.2" font-family="Times New Roman,serif" font-size="14.00">No</text>
</g>
<!-- Output -->
<g id="node12" class="node">
<title>Output</title>
<polygon fill="lightblue" stroke="lightblue" points="294.75,-109 58.25,-109 58.25,-73 294.75,-73 294.75,-109"/>
<text xml:space="preserve" text-anchor="middle" x="176.5" y="-85.95" font-family="Times New Roman,serif" font-size="14.00">Write Results (Partition, Metrics, Trace)</text>
</g>
<!-- Rollback&#45;&gt;Output -->
<g id="edge12" class="edge">
<title>Rollback&#45;&gt;Output</title>
<path fill="none" stroke="black" d="M176.5,-145.81C176.5,-138.23 176.5,-129.1 176.5,-120.54"/>
<polygon fill="black" stroke="black" points="180,-120.54 176.5,-110.54 173,-120.54 180,-120.54"/>
</g>
<!-- End -->
<g id="node13" class="node">
<title>End</title>
<polygon fill="lightblue" stroke="lightblue" points="203.5,-36 149.5,-36 149.5,0 203.5,0 203.5,-36"/>
<text xml:space="preserve" text-anchor="middle" x="176.5" y="-12.95" font-family="Times New Roman,serif" font-size="14.00">End</text>
</g>
<!-- Output&#45;&gt;End -->
<g id="edge13" class="edge">
<title>Output&#45;&gt;End</title>
<path fill="none" stroke="black" d="M176.5,-72.81C176.5,-65.23 176.5,-56.1 176.5,-47.54"/>
<polygon fill="black" stroke="black" points="180,-47.54 176.5,-37.54 173,-47.54 180,-47.54"/>
</g>
</g>
</svg>
